<svg id="svg" xmlns="http://www.w3.org/2000/svg" xmlns:xlink="http://www.w3.org/1999/xlink" width="400" height="26.675648366453352" viewBox="0, 0, 400,26.675648366453352" version="1.1"><g id="svgg"><path id="path0" d="M10.167 0.225 C 9.846 0.319,9.546 0.445,9.500 0.506 C 9.425 0.604,8.678 0.847,8.250 0.911 C 7.956 0.956,6.244 1.814,6.417 1.830 C 6.508 1.838,6.273 1.991,5.895 2.169 C 4.614 2.769,1.161 6.717,1.564 7.119 C 1.605 7.161,1.514 7.341,1.361 7.519 C 1.208 7.698,1.082 7.898,1.081 7.964 C 1.079 8.030,1.009 8.192,0.925 8.326 C 0.840 8.459,0.747 8.793,0.717 9.067 C 0.687 9.342,0.597 9.608,0.516 9.658 C 0.032 9.963,-0.178 16.302,0.292 16.458 C 0.406 16.497,0.501 16.690,0.502 16.889 C 0.505 17.284,0.904 18.516,1.209 19.068 C 1.314 19.260,1.414 19.494,1.430 19.588 C 1.446 19.682,1.656 20.049,1.896 20.403 C 2.137 20.757,2.333 21.115,2.333 21.200 C 2.333 21.284,2.408 21.307,2.500 21.250 C 2.592 21.193,2.667 21.233,2.667 21.338 C 2.667 21.598,4.827 23.950,4.839 23.703 C 4.842 23.637,4.973 23.733,5.131 23.917 C 5.508 24.356,6.710 25.167,6.983 25.167 C 7.102 25.167,7.435 25.335,7.724 25.541 C 8.013 25.747,8.250 25.892,8.250 25.864 C 8.250 25.809,8.615 25.919,9.365 26.198 C 9.611 26.290,9.893 26.316,9.990 26.256 C 10.087 26.196,10.167 26.214,10.167 26.296 C 10.167 26.492,10.198 26.496,13.030 26.605 C 14.795 26.674,15.655 26.641,16.114 26.487 C 16.464 26.370,16.931 26.254,17.152 26.229 C 17.372 26.204,17.597 26.124,17.652 26.050 C 17.706 25.977,17.900 25.893,18.083 25.864 C 18.551 25.791,20.959 24.534,21.451 24.106 C 21.676 23.910,21.891 23.768,21.928 23.790 C 22.093 23.886,23.831 21.965,23.729 21.799 C 23.664 21.693,23.691 21.662,23.793 21.725 C 23.893 21.787,24.067 21.619,24.188 21.346 C 24.307 21.077,24.458 20.891,24.524 20.931 C 24.589 20.972,24.739 20.742,24.855 20.419 C 24.972 20.097,25.139 19.833,25.228 19.833 C 25.316 19.833,25.343 19.788,25.287 19.732 C 25.231 19.676,25.369 19.340,25.593 18.985 C 25.817 18.630,26.000 18.221,26.000 18.076 C 26.000 17.930,26.071 17.679,26.157 17.518 C 26.244 17.356,26.339 17.043,26.370 16.820 C 26.400 16.598,26.490 16.313,26.570 16.185 C 26.712 15.958,26.756 11.321,26.621 10.833 C 26.582 10.696,26.465 10.373,26.360 10.116 C 26.255 9.860,26.129 9.410,26.081 9.116 C 25.983 8.516,25.690 7.863,25.365 7.520 C 25.246 7.394,25.187 7.188,25.235 7.062 C 25.283 6.936,25.269 6.833,25.202 6.833 C 25.136 6.833,24.978 6.599,24.851 6.313 C 24.724 6.026,24.387 5.568,24.102 5.295 C 23.817 5.021,23.605 4.693,23.632 4.565 C 23.659 4.437,23.491 4.246,23.257 4.140 C 23.024 4.033,22.833 3.851,22.833 3.734 C 22.833 3.618,22.682 3.475,22.498 3.416 C 22.310 3.356,22.212 3.229,22.275 3.126 C 22.344 3.015,22.295 2.979,22.151 3.034 C 21.897 3.132,21.453 2.769,21.621 2.601 C 21.715 2.508,21.415 2.435,21.125 2.480 C 21.056 2.491,21.000 2.434,21.000 2.353 C 21.000 2.186,20.306 1.699,19.970 1.629 C 19.849 1.604,19.712 1.545,19.667 1.498 C 19.492 1.318,18.055 0.647,17.906 0.676 C 17.820 0.693,17.694 0.688,17.625 0.666 C 17.556 0.643,17.444 0.609,17.375 0.590 C 17.306 0.571,17.025 0.453,16.750 0.328 C 16.133 0.048,11.040 -0.033,10.167 0.225 M39.500 0.202 C 39.271 0.295,38.933 0.393,38.750 0.420 C 37.449 0.607,34.500 1.950,34.500 2.355 C 34.500 2.435,34.387 2.500,34.250 2.500 C 34.112 2.500,34.000 2.571,34.000 2.658 C 34.000 2.744,33.794 2.916,33.542 3.040 C 33.285 3.165,33.094 3.389,33.106 3.549 C 33.119 3.705,33.056 3.833,32.967 3.833 C 32.760 3.833,32.180 4.521,32.172 4.774 C 32.169 4.879,32.069 5.002,31.949 5.048 C 31.830 5.094,31.630 5.439,31.506 5.816 C 31.382 6.192,31.213 6.500,31.130 6.500 C 31.048 6.500,31.017 6.560,31.062 6.632 C 31.107 6.705,30.992 7.099,30.807 7.507 C 30.621 7.916,30.457 8.599,30.443 9.025 C 30.429 9.451,30.370 9.771,30.313 9.736 C 30.049 9.576,29.984 15.259,30.233 16.667 C 30.274 16.896,30.348 17.391,30.399 17.767 C 30.449 18.143,30.640 18.799,30.823 19.225 C 31.005 19.651,31.121 20.000,31.079 20.000 C 31.038 20.000,31.262 20.403,31.578 20.897 C 31.893 21.390,32.105 21.840,32.048 21.897 C 31.991 21.953,32.032 22.000,32.139 22.000 C 32.246 22.000,32.333 22.077,32.333 22.170 C 32.333 22.381,34.156 24.250,34.362 24.250 C 34.445 24.250,34.566 24.335,34.631 24.439 C 34.792 24.695,35.951 25.333,36.255 25.333 C 36.390 25.333,36.500 25.415,36.500 25.514 C 36.500 25.613,36.594 25.660,36.708 25.619 C 36.823 25.577,37.029 25.639,37.167 25.756 C 37.304 25.873,37.642 25.995,37.917 26.026 C 38.192 26.057,38.456 26.135,38.505 26.200 C 38.554 26.265,38.878 26.337,39.225 26.361 C 39.573 26.384,39.887 26.452,39.924 26.512 C 39.961 26.571,42.637 26.630,45.870 26.642 L 51.750 26.664 52.261 26.207 C 52.542 25.956,52.821 25.619,52.880 25.458 C 52.940 25.298,53.072 25.167,53.173 25.167 C 53.274 25.167,53.344 24.998,53.327 24.792 C 53.310 24.585,53.313 24.379,53.332 24.333 C 53.450 24.061,53.445 22.181,53.327 22.254 C 53.248 22.302,53.214 22.186,53.251 21.996 C 53.348 21.492,52.281 20.377,51.502 20.167 C 51.156 20.074,48.895 19.988,46.478 19.976 C 44.061 19.963,42.008 19.910,41.917 19.857 C 41.825 19.803,41.548 19.756,41.301 19.750 C 41.054 19.745,40.798 19.686,40.731 19.620 C 40.665 19.554,40.474 19.500,40.306 19.500 C 40.137 19.500,40.000 19.430,40.000 19.345 C 40.000 19.181,39.349 18.907,39.113 18.971 C 39.037 18.992,39.023 18.931,39.081 18.837 C 39.139 18.744,39.110 18.667,39.017 18.667 C 38.742 18.667,38.113 17.939,37.670 17.109 C 37.443 16.682,37.218 16.333,37.170 16.333 C 36.520 16.332,37.009 10.590,37.754 9.464 C 37.984 9.117,38.129 8.833,38.077 8.833 C 37.803 8.833,39.024 7.924,39.889 7.485 C 41.182 6.828,41.190 6.827,46.097 6.826 C 48.523 6.826,50.517 6.753,50.847 6.652 C 51.160 6.556,51.511 6.460,51.627 6.437 C 51.742 6.415,51.926 6.307,52.035 6.198 C 52.144 6.089,52.335 6.000,52.460 6.000 C 52.584 6.000,52.640 5.925,52.583 5.833 C 52.527 5.742,52.602 5.667,52.750 5.667 C 52.898 5.667,52.973 5.592,52.917 5.500 C 52.860 5.408,52.902 5.333,53.010 5.333 C 53.124 5.333,53.169 5.194,53.118 5.000 C 53.070 4.816,53.099 4.708,53.182 4.760 C 53.265 4.811,53.338 4.755,53.343 4.635 C 53.348 4.515,53.387 4.004,53.430 3.500 C 53.541 2.184,53.100 1.058,52.243 0.473 L 51.583 0.021 45.750 0.027 C 42.180 0.030,39.755 0.098,39.500 0.202 M58.183 0.209 C 56.145 1.265,56.120 5.272,58.146 6.328 C 58.739 6.637,59.172 6.673,62.125 6.660 L 64.833 6.648 64.855 7.449 C 64.867 7.890,64.887 11.925,64.898 16.417 C 64.915 23.239,64.959 24.652,65.161 25.000 C 65.295 25.229,65.388 25.473,65.369 25.542 C 65.349 25.610,65.458 25.667,65.611 25.667 C 65.764 25.667,65.839 25.716,65.779 25.777 C 65.656 25.899,66.344 26.437,66.542 26.374 C 66.610 26.352,66.667 26.400,66.667 26.481 C 66.667 26.690,69.883 26.689,70.012 26.480 C 70.070 26.387,70.233 26.294,70.375 26.273 C 70.731 26.221,71.167 25.837,71.167 25.577 C 71.167 25.458,71.245 25.335,71.342 25.303 C 71.697 25.184,71.750 23.897,71.750 15.361 L 71.750 6.638 74.500 6.670 C 76.012 6.687,77.287 6.687,77.333 6.670 C 77.379 6.653,77.567 6.620,77.750 6.597 C 78.334 6.524,78.833 6.316,78.833 6.146 C 78.833 6.055,78.903 6.023,78.988 6.076 C 79.073 6.128,79.188 6.027,79.244 5.851 C 79.300 5.675,79.456 5.489,79.590 5.437 C 79.724 5.386,79.833 5.196,79.833 5.015 C 79.833 4.834,79.899 4.646,79.978 4.597 C 80.203 4.458,80.094 1.615,79.861 1.537 C 79.753 1.501,79.691 1.422,79.724 1.361 C 79.793 1.232,78.807 0.290,78.475 0.167 C 77.924 -0.037,58.581 0.003,58.183 0.209 M93.772 0.272 C 93.509 0.415,93.341 0.456,93.397 0.364 C 93.463 0.258,93.289 0.263,92.917 0.377 C 92.596 0.475,92.333 0.626,92.333 0.712 C 92.333 0.799,92.217 0.824,92.075 0.770 C 91.906 0.705,91.857 0.737,91.935 0.864 C 92.015 0.993,91.963 1.021,91.777 0.950 C 91.625 0.892,91.500 0.914,91.500 1.000 C 91.500 1.086,91.402 1.118,91.282 1.072 C 91.162 1.026,90.787 1.176,90.448 1.406 C 90.110 1.635,89.832 1.769,89.831 1.703 C 89.829 1.637,89.773 1.658,89.706 1.750 C 89.542 1.972,88.213 3.000,88.088 3.000 C 87.903 3.000,86.250 4.704,86.292 4.852 C 86.315 4.933,86.208 5.000,86.056 5.000 C 85.903 5.000,85.820 5.042,85.872 5.094 C 85.924 5.146,85.711 5.576,85.400 6.049 C 85.088 6.522,84.833 6.995,84.833 7.101 C 84.833 7.206,84.722 7.385,84.585 7.498 C 84.449 7.612,84.375 7.766,84.421 7.841 C 84.468 7.916,84.438 8.019,84.355 8.070 C 84.272 8.121,84.155 8.426,84.095 8.748 C 84.034 9.070,83.929 9.333,83.861 9.333 C 83.794 9.333,83.730 9.465,83.719 9.625 C 83.700 9.913,83.650 10.194,83.353 11.667 C 83.204 12.403,83.223 14.347,83.387 15.167 C 83.433 15.396,83.555 16.013,83.659 16.537 C 83.763 17.062,83.957 17.700,84.090 17.954 C 84.223 18.208,84.332 18.548,84.332 18.708 C 84.333 18.869,84.408 19.000,84.500 19.000 C 84.592 19.000,84.649 19.056,84.628 19.125 C 84.573 19.299,85.614 21.082,85.918 21.334 C 86.055 21.448,86.167 21.603,86.167 21.679 C 86.167 21.862,87.796 23.583,87.970 23.583 C 88.044 23.583,88.301 23.795,88.541 24.053 C 88.780 24.311,89.037 24.517,89.113 24.510 C 89.188 24.503,89.362 24.593,89.500 24.710 C 89.829 24.991,91.049 25.580,91.208 25.535 C 91.277 25.516,91.333 25.583,91.333 25.684 C 91.333 25.786,91.446 25.826,91.583 25.773 C 91.721 25.720,91.833 25.754,91.833 25.848 C 91.833 25.943,91.903 25.977,91.988 25.924 C 92.074 25.871,92.194 25.909,92.255 26.009 C 92.317 26.108,92.470 26.150,92.595 26.102 C 92.720 26.054,92.868 26.088,92.923 26.177 C 92.978 26.266,93.093 26.296,93.178 26.243 C 93.264 26.190,93.333 26.231,93.333 26.333 C 93.333 26.436,93.412 26.471,93.507 26.412 C 93.603 26.353,93.772 26.380,93.884 26.473 C 94.140 26.685,99.489 26.644,99.826 26.427 C 99.960 26.341,100.253 26.251,100.478 26.227 C 100.703 26.203,100.948 26.086,101.024 25.967 C 101.100 25.848,101.163 25.815,101.164 25.895 C 101.166 25.975,101.267 25.957,101.390 25.855 C 101.513 25.753,101.654 25.709,101.702 25.758 C 101.798 25.854,103.548 24.993,104.083 24.586 C 104.267 24.447,104.904 23.970,105.500 23.526 C 106.096 23.083,106.585 22.651,106.588 22.568 C 106.590 22.485,106.839 22.174,107.140 21.877 C 107.442 21.580,107.642 21.261,107.584 21.169 C 107.527 21.076,107.610 21.000,107.768 21.000 C 107.926 21.000,108.005 20.950,107.944 20.889 C 107.883 20.827,107.939 20.658,108.070 20.514 C 108.200 20.369,108.332 20.139,108.362 20.004 C 108.392 19.869,108.515 19.653,108.635 19.524 C 108.754 19.396,108.813 19.188,108.765 19.062 C 108.717 18.936,108.749 18.833,108.836 18.833 C 109.042 18.833,109.490 17.759,109.582 17.046 C 109.621 16.741,109.686 16.437,109.726 16.370 C 110.082 15.790,110.192 11.299,109.864 10.753 C 109.810 10.663,109.743 10.438,109.716 10.253 C 109.629 9.664,109.544 9.250,109.509 9.250 C 109.490 9.250,109.448 9.109,109.415 8.937 C 109.383 8.764,109.276 8.543,109.178 8.445 C 109.080 8.347,109.000 8.141,109.000 7.987 C 109.000 7.833,108.900 7.624,108.777 7.523 C 108.655 7.421,108.458 7.046,108.340 6.688 C 108.222 6.331,107.835 5.730,107.480 5.352 C 107.124 4.975,106.833 4.605,106.833 4.530 C 106.833 4.356,106.002 3.627,105.993 3.793 C 105.990 3.861,105.875 3.710,105.738 3.458 C 105.601 3.206,105.420 3.000,105.336 3.000 C 105.251 3.000,104.994 2.813,104.765 2.583 C 104.536 2.354,104.285 2.167,104.207 2.167 C 104.129 2.167,103.811 1.979,103.500 1.750 C 103.189 1.521,102.800 1.333,102.634 1.333 C 102.469 1.333,102.333 1.246,102.333 1.139 C 102.333 1.032,102.283 0.995,102.222 1.056 C 102.160 1.118,101.954 1.066,101.763 0.943 C 101.282 0.630,100.211 0.290,99.417 0.198 C 98.066 0.041,94.740 0.045,94.438 0.203 C 94.218 0.318,94.160 0.313,94.240 0.183 C 94.383 -0.048,94.353 -0.043,93.772 0.272 M114.933 0.268 C 114.879 0.407,114.770 0.480,114.689 0.430 C 114.484 0.304,113.625 1.131,113.750 1.334 C 113.807 1.425,113.782 1.500,113.694 1.500 C 113.607 1.500,113.491 1.616,113.436 1.759 C 113.382 1.902,113.408 1.973,113.496 1.919 C 113.583 1.865,113.544 2.086,113.409 2.410 C 113.218 2.867,113.210 3.001,113.373 3.003 C 113.531 3.004,113.527 3.041,113.357 3.148 C 113.200 3.248,113.187 3.326,113.316 3.406 C 113.548 3.549,113.580 23.098,113.348 23.241 C 113.220 23.320,113.216 23.682,113.340 24.000 C 113.358 24.046,113.365 24.137,113.355 24.203 C 113.345 24.268,113.402 24.493,113.482 24.703 C 113.562 24.912,113.623 25.121,113.619 25.167 C 113.601 25.349,114.033 26.023,114.115 25.941 C 114.163 25.893,114.401 26.039,114.643 26.265 C 115.098 26.691,117.860 26.861,118.097 26.478 C 118.146 26.398,118.276 26.334,118.385 26.336 C 118.504 26.337,118.484 26.403,118.333 26.500 C 118.179 26.600,118.160 26.663,118.284 26.664 C 118.395 26.666,118.668 26.484,118.891 26.260 C 119.115 26.036,119.343 25.886,119.399 25.927 C 119.455 25.967,119.469 25.956,119.431 25.903 C 119.393 25.850,119.538 25.547,119.752 25.231 L 120.143 24.655 120.113 15.702 L 120.083 6.750 124.083 6.784 C 129.636 6.830,130.490 7.132,129.799 8.801 C 129.696 9.048,129.621 9.295,129.632 9.351 C 129.678 9.599,128.252 9.819,126.375 9.854 C 125.252 9.875,124.333 9.943,124.333 10.006 C 124.333 10.069,124.158 10.087,123.943 10.046 C 123.728 10.005,123.445 10.071,123.314 10.194 C 123.183 10.316,122.974 10.438,122.851 10.465 C 122.576 10.524,122.041 11.125,121.842 11.597 C 121.762 11.787,121.708 12.670,121.723 13.557 L 121.750 15.171 122.382 15.750 C 123.166 16.468,123.617 16.717,123.863 16.565 C 123.978 16.494,124.006 16.523,123.934 16.639 C 123.847 16.779,124.673 16.817,127.105 16.782 C 129.494 16.747,130.412 16.679,130.461 16.533 C 130.498 16.422,130.600 16.376,130.688 16.430 C 130.776 16.484,130.969 16.428,131.116 16.306 C 131.264 16.184,131.392 16.103,131.401 16.128 C 131.442 16.242,132.833 15.598,132.833 15.465 C 132.833 15.382,132.898 15.354,132.977 15.402 C 133.055 15.451,133.318 15.268,133.561 14.995 C 133.804 14.723,134.081 14.500,134.178 14.500 C 134.274 14.500,134.307 14.425,134.250 14.334 C 134.194 14.243,134.340 14.081,134.574 13.974 C 134.808 13.867,135.000 13.683,135.000 13.565 C 135.000 13.447,135.106 13.290,135.237 13.217 C 135.367 13.143,135.498 12.973,135.528 12.837 C 135.559 12.702,135.677 12.490,135.792 12.367 C 135.906 12.244,136.000 12.036,136.000 11.905 C 136.000 11.774,136.068 11.667,136.152 11.667 C 136.337 11.667,136.543 10.635,136.762 8.608 C 136.829 7.988,136.787 7.350,136.646 6.858 C 136.525 6.432,136.441 6.031,136.460 5.966 C 136.528 5.738,135.842 4.333,135.663 4.333 C 135.562 4.333,135.521 4.267,135.571 4.187 C 135.778 3.851,133.724 1.702,132.849 1.340 C 132.568 1.223,132.374 1.069,132.419 0.997 C 132.463 0.925,132.275 0.787,132.000 0.692 C 131.725 0.596,131.499 0.570,131.497 0.634 C 131.496 0.698,131.440 0.673,131.372 0.580 C 130.993 0.054,130.306 0.009,122.683 0.012 C 115.993 0.014,115.018 0.047,114.933 0.268 M141.733 0.193 C 141.684 0.273,141.574 0.296,141.488 0.243 C 141.403 0.190,141.333 0.268,141.333 0.417 C 141.333 0.565,141.258 0.640,141.167 0.583 C 141.075 0.527,141.000 0.564,141.000 0.667 C 141.000 0.769,140.906 0.799,140.792 0.733 C 140.677 0.667,140.640 0.675,140.709 0.751 C 140.778 0.827,140.710 1.027,140.558 1.195 C 140.406 1.363,140.350 1.501,140.433 1.503 C 140.515 1.504,140.471 1.576,140.333 1.663 C 139.998 1.875,139.881 15.091,140.216 14.890 C 140.345 14.812,140.337 14.868,140.194 15.045 C 140.059 15.211,140.010 15.504,140.071 15.785 C 140.209 16.419,140.288 16.847,140.405 17.582 C 140.460 17.925,140.553 18.284,140.613 18.381 C 140.672 18.477,140.739 18.750,140.761 18.986 C 140.782 19.223,140.817 19.435,140.838 19.458 C 140.858 19.481,140.891 19.556,140.910 19.625 C 140.929 19.694,141.032 19.961,141.139 20.219 C 141.246 20.477,141.333 20.782,141.333 20.896 C 141.333 21.010,141.465 21.252,141.625 21.433 C 141.785 21.615,141.940 21.873,141.967 22.007 C 141.995 22.140,142.126 22.332,142.257 22.433 C 142.388 22.534,142.448 22.663,142.390 22.721 C 142.333 22.778,142.409 22.873,142.559 22.931 C 142.710 22.988,142.833 23.105,142.833 23.190 C 142.833 23.383,143.793 24.333,143.988 24.333 C 144.067 24.333,144.176 24.451,144.231 24.594 C 144.286 24.737,144.399 24.813,144.481 24.762 C 144.564 24.710,144.677 24.785,144.731 24.928 C 144.786 25.071,144.898 25.146,144.980 25.096 C 145.062 25.045,145.221 25.115,145.333 25.250 C 145.446 25.385,145.604 25.455,145.686 25.405 C 145.767 25.355,145.833 25.381,145.833 25.463 C 145.833 25.669,146.519 25.961,146.875 25.907 C 147.035 25.883,147.167 25.936,147.167 26.025 C 147.167 26.114,147.242 26.140,147.333 26.083 C 147.425 26.027,147.500 26.047,147.500 26.128 C 147.500 26.540,153.800 26.916,154.403 26.539 C 154.502 26.477,154.771 26.413,155.000 26.397 C 155.524 26.359,156.339 26.190,156.667 26.051 C 156.804 25.993,156.954 25.935,157.000 25.923 C 157.489 25.790,157.833 25.620,157.833 25.510 C 157.833 25.436,158.045 25.333,158.304 25.281 C 158.562 25.229,159.012 24.943,159.304 24.645 C 159.595 24.347,159.833 24.158,159.833 24.225 C 159.833 24.416,160.410 23.821,161.023 22.998 C 161.686 22.109,162.403 20.833,162.240 20.833 C 162.177 20.833,162.229 20.709,162.355 20.558 C 162.480 20.406,162.563 20.255,162.538 20.223 C 162.514 20.190,162.597 19.958,162.724 19.707 C 162.851 19.455,162.944 19.050,162.931 18.805 C 162.918 18.560,162.960 18.392,163.024 18.432 C 163.089 18.472,163.190 18.072,163.248 17.544 C 163.307 17.016,163.397 16.358,163.450 16.083 C 163.873 13.863,163.627 1.333,163.160 1.333 C 163.072 1.333,163.000 1.235,163.000 1.115 C 163.000 0.473,161.970 0.084,160.208 0.062 C 159.269 0.050,158.500 0.106,158.500 0.187 C 158.500 0.267,158.387 0.333,158.250 0.333 C 158.112 0.333,158.000 0.408,158.000 0.500 C 158.000 0.592,157.887 0.667,157.750 0.667 C 157.612 0.667,157.500 0.782,157.500 0.922 C 157.500 1.062,157.388 1.220,157.251 1.273 C 157.114 1.325,157.043 1.435,157.094 1.517 C 157.145 1.600,157.110 1.667,157.018 1.667 C 156.908 1.667,156.840 3.734,156.824 7.625 C 156.797 13.851,156.776 14.544,156.581 15.500 C 156.516 15.821,156.458 16.177,156.453 16.292 C 156.448 16.406,156.376 16.500,156.292 16.500 C 156.208 16.500,156.173 16.594,156.214 16.708 C 156.292 16.925,155.905 17.744,155.541 18.135 C 155.425 18.258,155.254 18.503,155.160 18.680 C 155.065 18.856,154.878 19.000,154.744 19.000 C 154.610 19.000,154.500 19.057,154.500 19.126 C 154.500 19.884,150.966 20.077,149.627 19.393 C 149.376 19.265,149.113 19.149,149.043 19.135 C 148.752 19.077,147.846 17.878,147.654 17.295 C 147.540 16.950,147.400 16.667,147.342 16.667 C 147.285 16.667,147.220 16.431,147.198 16.144 C 147.176 15.856,147.106 15.537,147.043 15.435 C 146.980 15.333,146.910 14.537,146.888 13.667 C 146.866 12.796,146.805 11.896,146.752 11.667 C 146.679 11.350,146.697 11.310,146.826 11.500 C 146.942 11.672,146.995 10.456,146.996 7.583 C 146.997 2.844,146.913 1.815,146.488 1.359 C 146.322 1.181,146.235 0.987,146.294 0.928 C 146.354 0.869,146.237 0.777,146.034 0.724 C 145.832 0.671,145.667 0.562,145.667 0.481 C 145.667 0.400,145.554 0.333,145.417 0.333 C 145.279 0.333,145.167 0.268,145.167 0.189 C 145.167 -0.001,141.851 0.004,141.733 0.193 M173.443 0.112 C 173.400 0.155,173.121 0.229,172.823 0.276 C 172.524 0.323,172.124 0.421,171.932 0.494 C 171.740 0.567,171.535 0.617,171.476 0.605 C 171.417 0.593,171.203 0.733,171.000 0.917 C 170.797 1.100,170.599 1.223,170.559 1.191 C 170.415 1.075,169.506 1.542,169.595 1.686 C 169.645 1.767,169.584 1.833,169.458 1.833 C 169.190 1.833,168.235 2.740,168.230 3.000 C 168.229 3.046,168.028 3.299,167.784 3.563 C 167.539 3.826,167.380 4.108,167.430 4.188 C 167.479 4.268,167.460 4.427,167.387 4.542 C 167.315 4.656,167.247 4.787,167.237 4.833 C 167.228 4.879,167.105 5.179,166.964 5.500 C 166.223 7.186,166.843 12.421,167.868 13.142 C 168.045 13.266,168.153 13.463,168.108 13.580 C 168.063 13.696,168.206 13.887,168.424 14.004 C 168.643 14.121,168.787 14.273,168.744 14.342 C 168.637 14.516,170.366 15.640,171.167 15.917 C 171.213 15.933,171.362 15.992,171.500 16.048 C 171.637 16.104,172.087 16.237,172.499 16.343 C 172.911 16.448,173.399 16.574,173.583 16.622 C 173.766 16.669,175.604 16.731,177.667 16.759 C 179.729 16.787,181.604 16.882,181.833 16.969 C 182.063 17.056,182.306 17.094,182.375 17.054 C 182.444 17.013,182.500 17.061,182.500 17.160 C 182.500 17.259,182.673 17.419,182.883 17.515 C 183.352 17.728,183.476 18.667,183.087 19.055 C 182.948 19.195,182.833 19.402,182.833 19.516 C 182.833 19.629,182.786 19.675,182.728 19.617 C 182.670 19.559,182.493 19.581,182.334 19.666 C 181.832 19.935,180.887 19.978,174.960 19.997 C 168.640 20.018,168.539 20.031,167.487 20.993 L 166.797 21.624 166.716 23.243 C 166.644 24.705,166.669 24.898,166.975 25.223 C 167.161 25.421,167.312 25.658,167.310 25.750 C 167.309 25.842,167.445 25.992,167.612 26.083 C 167.780 26.175,167.970 26.325,168.036 26.417 C 168.329 26.828,184.032 26.595,184.832 26.168 C 185.004 26.075,185.300 26.000,185.489 26.000 C 185.678 26.000,185.833 25.921,185.833 25.823 C 185.833 25.726,185.908 25.693,186.000 25.750 C 186.092 25.807,186.167 25.774,186.167 25.677 C 186.167 25.579,186.265 25.500,186.385 25.500 C 186.505 25.500,186.768 25.347,186.969 25.160 C 187.169 24.973,187.333 24.864,187.333 24.917 C 187.333 25.034,187.718 24.729,188.283 24.167 C 188.716 23.734,189.498 22.496,189.570 22.127 C 189.593 22.012,189.738 21.497,189.893 20.984 C 190.390 19.343,190.173 14.770,189.615 15.115 C 189.523 15.172,189.499 15.136,189.561 15.037 C 189.700 14.812,188.994 13.317,188.804 13.435 C 188.729 13.481,188.667 13.407,188.667 13.269 C 188.667 13.132,188.500 12.902,188.296 12.759 C 188.093 12.617,187.990 12.500,188.069 12.500 C 188.148 12.500,187.921 12.276,187.565 12.002 C 187.208 11.728,186.837 11.438,186.739 11.357 C 186.641 11.276,186.266 11.115,185.905 10.999 C 185.545 10.882,185.100 10.727,184.917 10.654 C 184.157 10.351,182.990 10.140,181.875 10.105 C 181.486 10.093,181.167 10.038,181.167 9.983 C 181.167 9.927,180.110 9.868,178.820 9.851 C 177.038 9.828,176.502 9.868,176.595 10.019 C 176.677 10.151,176.647 10.174,176.508 10.088 C 176.392 10.017,175.950 9.926,175.524 9.887 C 175.098 9.848,174.563 9.693,174.333 9.543 C 174.104 9.394,173.882 9.291,173.840 9.315 C 173.448 9.536,173.442 7.951,173.833 7.500 C 174.017 7.289,174.168 7.183,174.169 7.266 C 174.171 7.349,174.228 7.328,174.297 7.219 C 174.498 6.904,175.614 6.839,181.862 6.780 C 185.100 6.750,187.862 6.689,188.000 6.644 C 188.853 6.368,189.000 6.294,189.000 6.146 C 189.000 6.055,189.071 6.024,189.158 6.078 C 189.331 6.185,189.702 5.606,189.787 5.096 C 189.816 4.920,189.919 4.681,190.016 4.565 C 190.211 4.329,190.190 2.345,189.990 2.083 C 189.919 1.992,189.846 1.842,189.828 1.750 C 189.661 0.935,189.106 0.352,188.446 0.298 C 188.201 0.277,188.000 0.199,188.000 0.123 C 188.000 -0.019,173.585 -0.029,173.443 0.112 M219.777 0.195 C 219.618 0.284,219.397 0.324,219.285 0.285 C 219.174 0.245,218.887 0.312,218.646 0.433 C 218.406 0.554,218.162 0.606,218.104 0.549 C 218.047 0.491,218.000 0.517,218.000 0.607 C 218.000 0.696,217.831 0.771,217.625 0.773 C 217.135 0.779,216.167 1.159,216.167 1.344 C 216.167 1.424,216.042 1.442,215.889 1.383 C 215.688 1.306,215.649 1.337,215.748 1.497 C 215.839 1.644,215.820 1.678,215.693 1.600 C 215.519 1.492,214.328 2.242,214.194 2.543 C 214.163 2.612,214.070 2.626,213.986 2.575 C 213.902 2.523,213.833 2.602,213.833 2.750 C 213.833 2.898,213.769 2.980,213.690 2.931 C 213.495 2.811,212.358 4.099,212.022 4.822 C 211.872 5.143,211.616 5.543,211.452 5.709 C 211.288 5.876,211.199 6.084,211.254 6.173 C 211.308 6.261,211.274 6.333,211.177 6.333 C 211.079 6.333,211.012 6.390,211.027 6.458 C 211.073 6.665,210.799 7.569,210.623 7.792 C 210.533 7.906,210.509 8.000,210.569 8.000 C 210.629 8.000,210.593 8.160,210.489 8.355 C 210.384 8.550,210.271 9.019,210.238 9.396 C 210.205 9.774,210.125 10.496,210.059 11.000 C 209.900 12.234,209.907 14.491,210.075 15.917 C 210.150 16.558,210.203 17.252,210.191 17.458 C 210.180 17.665,210.228 17.833,210.299 17.833 C 210.370 17.833,210.440 17.965,210.453 18.125 C 210.497 18.641,210.915 19.946,211.113 20.185 C 211.304 20.415,211.333 20.504,211.333 20.843 C 211.333 20.940,211.408 20.973,211.500 20.917 C 211.593 20.859,211.667 20.986,211.667 21.205 C 211.667 21.434,211.960 21.911,212.375 22.358 C 212.765 22.778,213.170 23.263,213.276 23.436 C 213.382 23.609,213.551 23.731,213.651 23.708 C 213.751 23.685,213.833 23.771,213.833 23.899 C 213.833 24.109,214.036 24.262,214.378 24.308 C 214.449 24.318,214.711 24.515,214.960 24.746 C 215.209 24.978,215.470 25.176,215.540 25.188 C 215.771 25.225,215.912 25.276,216.417 25.500 C 216.692 25.622,216.954 25.735,217.000 25.750 C 217.046 25.766,217.196 25.825,217.333 25.881 C 217.778 26.063,219.075 26.401,219.360 26.409 C 219.512 26.413,219.687 26.467,219.749 26.528 C 219.811 26.589,222.404 26.648,225.511 26.658 C 231.695 26.679,232.463 26.571,232.760 25.634 C 232.825 25.431,232.971 25.172,233.085 25.057 C 234.034 24.109,232.869 20.234,231.612 20.154 C 231.505 20.147,231.255 20.111,231.057 20.074 C 230.859 20.037,228.721 19.973,226.307 19.932 C 221.464 19.850,221.115 19.821,220.382 19.442 C 220.103 19.298,219.829 19.227,219.771 19.284 C 219.714 19.342,219.667 19.301,219.667 19.194 C 219.667 19.087,219.562 19.000,219.434 19.000 C 219.306 19.000,219.025 18.814,218.809 18.586 C 218.593 18.359,218.318 18.171,218.198 18.170 C 218.079 18.168,218.027 18.091,218.084 17.999 C 218.141 17.907,218.071 17.786,217.928 17.731 C 217.785 17.677,217.706 17.571,217.752 17.496 C 217.799 17.421,217.736 17.260,217.613 17.137 C 217.440 16.963,217.176 16.281,217.158 15.959 C 217.157 15.936,217.062 15.504,216.948 15.000 C 216.701 13.910,216.759 11.368,217.036 11.160 C 217.102 11.111,217.175 10.825,217.198 10.525 C 217.220 10.226,217.335 9.901,217.453 9.803 C 217.570 9.706,217.667 9.535,217.667 9.423 C 217.667 9.171,218.923 7.833,219.160 7.833 C 219.255 7.833,219.333 7.746,219.333 7.639 C 219.333 7.532,219.380 7.491,219.437 7.548 C 219.494 7.606,219.832 7.504,220.187 7.323 C 221.075 6.870,221.618 6.825,226.667 6.781 C 232.771 6.728,233.165 6.519,233.280 3.272 L 233.338 1.627 232.593 0.883 C 232.183 0.473,231.770 0.186,231.674 0.245 C 231.578 0.305,231.500 0.274,231.500 0.176 C 231.500 -0.055,220.192 -0.037,219.777 0.195 M247.250 0.124 C 246.975 0.164,246.675 0.258,246.583 0.333 C 246.492 0.409,246.117 0.524,245.750 0.590 C 245.033 0.720,244.477 0.957,244.317 1.203 C 244.262 1.287,244.112 1.380,243.983 1.411 C 243.401 1.548,243.000 1.715,243.000 1.819 C 243.000 1.882,242.736 2.028,242.414 2.145 C 242.092 2.261,241.871 2.427,241.924 2.512 C 241.977 2.597,241.951 2.667,241.868 2.667 C 241.784 2.667,241.499 2.873,241.234 3.125 C 240.969 3.377,240.531 3.752,240.260 3.958 C 239.990 4.165,239.815 4.333,239.871 4.333 C 239.928 4.333,239.774 4.550,239.529 4.815 C 238.829 5.571,238.679 5.790,238.788 5.899 C 238.843 5.955,238.804 6.000,238.701 6.000 C 238.598 6.000,238.424 6.298,238.315 6.661 C 238.206 7.025,238.053 7.283,237.975 7.235 C 237.897 7.186,237.828 7.208,237.821 7.282 C 237.807 7.423,237.743 7.743,237.643 8.167 C 237.610 8.304,237.525 8.460,237.454 8.512 C 237.384 8.565,237.296 8.752,237.261 8.929 C 237.225 9.106,237.114 9.463,237.014 9.722 C 236.913 9.982,236.875 10.267,236.930 10.355 C 236.984 10.443,236.961 10.605,236.877 10.716 C 236.610 11.070,236.489 14.447,236.709 15.417 C 236.772 15.692,236.870 16.217,236.927 16.583 C 236.985 16.950,237.189 17.587,237.380 18.000 C 237.572 18.412,237.754 18.900,237.784 19.083 C 237.815 19.267,237.965 19.510,238.117 19.624 C 238.270 19.738,238.406 19.981,238.420 20.164 C 238.433 20.346,238.569 20.633,238.722 20.802 C 238.875 20.971,239.000 21.164,239.000 21.229 C 239.000 21.295,239.188 21.523,239.417 21.735 C 239.646 21.948,239.833 22.207,239.833 22.311 C 239.833 22.415,239.890 22.501,239.958 22.502 C 240.072 22.504,240.995 23.271,241.952 24.158 C 242.155 24.346,242.399 24.500,242.494 24.500 C 242.589 24.500,242.667 24.588,242.667 24.694 C 242.667 24.801,242.713 24.842,242.770 24.785 C 242.827 24.729,243.140 24.863,243.465 25.084 C 243.790 25.305,244.118 25.447,244.195 25.399 C 244.271 25.352,244.333 25.398,244.333 25.500 C 244.333 25.602,244.408 25.640,244.500 25.583 C 244.592 25.527,244.667 25.564,244.667 25.667 C 244.667 25.769,244.750 25.801,244.852 25.738 C 244.954 25.675,245.088 25.705,245.149 25.805 C 245.284 26.023,247.150 26.530,247.355 26.403 C 247.435 26.354,247.500 26.401,247.500 26.509 C 247.500 26.783,253.204 26.638,253.296 26.361 C 253.332 26.254,253.561 26.166,253.806 26.165 C 254.050 26.164,254.625 25.979,255.083 25.754 C 255.542 25.528,256.001 25.341,256.105 25.339 C 256.208 25.336,256.385 25.222,256.498 25.085 C 256.612 24.949,256.771 24.878,256.853 24.929 C 256.935 24.980,257.047 24.904,257.102 24.761 C 257.157 24.617,257.340 24.500,257.508 24.500 C 257.677 24.500,257.933 24.331,258.077 24.125 C 258.222 23.919,258.395 23.750,258.463 23.750 C 258.839 23.750,261.667 20.349,261.667 19.896 C 261.667 19.790,261.784 19.657,261.927 19.602 C 262.071 19.547,262.139 19.424,262.080 19.327 C 262.020 19.231,262.095 18.963,262.246 18.732 C 262.505 18.337,263.095 16.251,263.207 15.333 C 263.235 15.104,263.307 14.840,263.366 14.745 C 263.458 14.599,263.429 12.240,263.332 12.000 C 263.313 11.954,263.312 11.710,263.328 11.458 C 263.345 11.206,263.273 11.000,263.169 11.000 C 263.065 11.000,263.022 10.932,263.074 10.849 C 263.215 10.620,262.669 8.625,262.374 8.292 C 262.231 8.131,262.176 8.000,262.250 8.000 C 262.324 8.000,262.242 7.837,262.067 7.638 C 261.893 7.439,261.855 7.338,261.984 7.414 C 262.113 7.489,261.984 7.212,261.699 6.797 C 261.413 6.382,261.213 6.009,261.254 5.968 C 261.295 5.927,261.067 5.608,260.748 5.259 C 260.428 4.910,260.167 4.587,260.167 4.541 C 260.167 4.274,257.718 2.167,257.409 2.167 C 257.304 2.167,257.087 2.022,256.927 1.845 C 256.767 1.667,256.530 1.563,256.401 1.612 C 256.272 1.662,256.167 1.638,256.167 1.559 C 256.167 1.437,255.260 0.939,255.000 0.918 C 254.954 0.915,254.836 0.860,254.738 0.798 C 254.640 0.735,254.360 0.648,254.116 0.604 C 253.872 0.559,253.596 0.476,253.503 0.419 C 253.048 0.138,248.600 -0.072,247.250 0.124 M268.903 0.189 C 268.854 0.268,268.640 0.333,268.427 0.333 C 268.215 0.333,267.948 0.445,267.835 0.581 C 267.722 0.718,267.557 0.785,267.470 0.731 C 267.382 0.677,267.270 0.791,267.219 0.983 C 267.169 1.176,267.049 1.333,266.953 1.333 C 266.857 1.333,266.825 1.381,266.883 1.439 C 266.941 1.496,266.913 1.685,266.821 1.857 C 266.617 2.238,266.517 24.500,266.720 24.500 C 266.794 24.500,266.808 24.650,266.750 24.834 C 266.679 25.056,266.731 25.202,266.905 25.269 C 267.049 25.324,267.167 25.459,267.167 25.570 C 267.167 25.863,268.150 26.542,268.423 26.437 C 268.551 26.388,268.703 26.424,268.760 26.516 C 269.239 27.291,273.415 26.220,273.101 25.403 C 273.056 25.285,273.085 25.165,273.166 25.136 C 273.429 25.042,273.472 24.163,273.486 18.625 C 273.501 12.936,273.546 12.617,274.170 13.839 C 274.358 14.209,274.587 14.466,274.677 14.410 C 274.768 14.354,274.823 14.370,274.800 14.446 C 274.732 14.674,275.358 15.504,275.522 15.403 C 275.606 15.351,275.664 15.370,275.651 15.446 C 275.598 15.752,275.674 16.049,275.778 15.944 C 275.840 15.883,276.069 16.133,276.288 16.500 C 276.507 16.866,276.756 17.167,276.843 17.167 C 276.929 17.167,276.985 17.223,276.966 17.292 C 276.935 17.405,277.456 18.062,278.208 18.858 C 278.369 19.028,278.444 19.169,278.375 19.172 C 278.306 19.175,278.400 19.291,278.583 19.429 C 278.767 19.568,278.917 19.737,278.917 19.806 C 278.917 19.941,279.906 21.256,280.324 21.677 C 280.467 21.821,280.846 22.300,281.167 22.742 C 281.487 23.184,281.956 23.767,282.208 24.036 C 282.460 24.305,282.667 24.568,282.667 24.620 C 282.667 24.672,282.891 24.928,283.165 25.190 C 283.439 25.452,283.621 25.667,283.569 25.667 C 283.517 25.667,283.714 25.868,284.007 26.115 C 285.045 26.989,289.791 26.709,289.233 25.806 C 289.186 25.730,289.268 25.667,289.417 25.667 C 289.565 25.667,289.644 25.598,289.592 25.514 C 289.540 25.430,289.569 25.337,289.656 25.306 C 290.007 25.182,290.052 23.817,290.048 13.583 C 290.042 2.513,290.026 2.030,289.650 1.544 C 289.211 0.975,288.667 0.456,288.664 0.602 C 288.663 0.684,288.595 0.646,288.515 0.518 C 288.329 0.225,286.834 -0.026,286.831 0.235 C 286.829 0.362,286.791 0.363,286.706 0.240 C 286.486 -0.078,284.909 0.048,284.481 0.417 C 283.238 1.486,283.273 1.287,283.202 7.868 L 283.140 13.653 282.490 12.952 C 281.492 11.874,281.324 11.667,281.449 11.667 C 281.513 11.667,281.340 11.423,281.065 11.125 C 280.790 10.827,280.346 10.254,280.078 9.853 C 279.810 9.451,279.457 9.039,279.295 8.937 C 279.133 8.836,279.000 8.700,279.000 8.634 C 279.000 8.569,278.813 8.328,278.583 8.098 C 278.354 7.869,278.167 7.569,278.167 7.430 C 278.167 7.292,278.017 7.098,277.833 7.000 C 277.650 6.902,277.500 6.720,277.500 6.595 C 277.500 6.471,277.395 6.329,277.266 6.279 C 277.137 6.230,276.786 5.828,276.486 5.386 C 276.185 4.945,275.762 4.415,275.545 4.208 C 275.327 4.002,275.210 3.831,275.283 3.828 C 275.357 3.825,275.285 3.747,275.125 3.653 C 274.965 3.560,274.833 3.403,274.833 3.305 C 274.833 3.207,274.627 2.885,274.375 2.589 C 274.123 2.293,273.729 1.818,273.500 1.533 C 273.271 1.247,273.024 1.011,272.952 1.007 C 272.879 1.003,272.610 0.845,272.355 0.656 C 272.099 0.467,271.745 0.285,271.570 0.252 C 271.394 0.219,271.250 0.177,271.250 0.159 C 271.250 0.043,268.975 0.072,268.903 0.189 M294.667 0.346 C 293.966 0.761,293.495 1.361,293.394 1.969 C 293.223 2.989,293.192 4.500,293.341 4.500 C 293.429 4.500,293.500 4.660,293.500 4.856 C 293.500 5.052,293.683 5.381,293.906 5.588 C 294.130 5.796,294.261 6.022,294.198 6.092 C 294.135 6.162,294.208 6.175,294.361 6.120 C 294.527 6.061,294.678 6.122,294.735 6.271 C 294.788 6.409,294.901 6.478,294.987 6.425 C 295.073 6.371,295.194 6.409,295.255 6.509 C 295.317 6.608,295.465 6.652,295.584 6.606 C 295.703 6.560,295.847 6.570,295.904 6.627 C 295.961 6.684,297.261 6.735,298.793 6.740 L 301.577 6.750 301.607 15.583 C 301.624 20.442,301.667 24.580,301.704 24.779 C 301.782 25.209,302.737 26.374,302.888 26.224 C 302.945 26.166,303.034 26.229,303.086 26.363 C 303.276 26.858,306.548 26.771,307.061 26.257 C 307.294 26.024,307.545 25.832,307.617 25.831 C 308.216 25.823,308.593 23.303,308.328 21.087 C 308.251 20.447,308.248 19.884,308.321 19.837 C 308.394 19.789,308.434 17.238,308.409 14.167 C 308.384 11.096,308.404 8.151,308.454 7.622 L 308.544 6.662 311.509 6.675 C 314.670 6.689,315.060 6.610,315.922 5.773 C 316.319 5.388,316.719 4.387,316.572 4.148 C 316.521 4.066,316.550 4.000,316.634 4.000 C 316.820 4.000,316.847 2.652,316.666 2.417 C 316.596 2.325,316.484 1.996,316.417 1.685 C 316.319 1.223,315.333 -0.057,315.333 0.276 C 315.333 0.330,315.238 0.295,315.122 0.199 C 314.655 -0.189,295.336 -0.050,294.667 0.346 M321.428 0.321 C 321.260 0.507,321.069 0.626,321.004 0.586 C 320.835 0.481,320.149 1.455,320.120 1.841 C 320.107 2.020,320.034 2.167,319.959 2.167 C 319.883 2.167,319.902 2.317,320.000 2.500 C 320.120 2.725,320.122 2.833,320.006 2.833 C 319.743 2.833,319.783 23.981,320.048 24.708 C 320.597 26.211,321.358 26.647,323.406 26.632 C 324.533 26.624,325.091 26.551,325.250 26.393 C 325.374 26.269,325.569 26.167,325.683 26.167 C 325.796 26.167,325.842 26.120,325.785 26.063 C 325.728 26.005,325.846 25.820,326.049 25.652 C 326.251 25.483,326.346 25.342,326.260 25.339 C 326.174 25.336,326.234 25.237,326.395 25.120 C 326.668 24.920,326.686 24.299,326.673 15.876 L 326.658 6.845 330.463 6.798 C 334.415 6.748,335.713 6.882,336.074 7.376 C 336.189 7.533,336.332 7.613,336.391 7.553 C 336.451 7.493,336.506 7.588,336.513 7.764 C 336.520 7.940,336.549 8.205,336.578 8.353 C 336.778 9.378,335.606 9.837,332.730 9.861 C 331.458 9.872,330.323 9.954,330.208 10.044 C 330.094 10.134,330.000 10.162,330.000 10.105 C 330.000 9.981,329.445 10.419,328.806 11.047 C 328.475 11.372,328.324 11.698,328.302 12.131 C 328.285 12.471,328.259 12.996,328.243 13.297 C 328.228 13.598,328.273 13.879,328.342 13.922 C 328.412 13.965,328.430 14.150,328.382 14.333 C 328.331 14.527,328.377 14.667,328.490 14.667 C 328.598 14.667,328.636 14.748,328.575 14.847 C 328.514 14.946,328.678 15.258,328.940 15.539 C 329.202 15.821,329.304 15.989,329.167 15.912 C 329.029 15.836,329.142 16.001,329.417 16.279 C 330.245 17.115,331.015 18.000,330.914 18.000 C 330.863 18.000,330.973 18.164,331.160 18.365 C 331.347 18.565,331.500 18.795,331.500 18.875 C 331.500 18.954,331.575 18.973,331.667 18.917 C 331.758 18.860,331.833 18.963,331.833 19.146 C 331.833 19.331,331.980 19.524,332.167 19.583 C 332.350 19.642,332.500 19.789,332.500 19.910 C 332.500 20.032,332.686 20.308,332.914 20.524 C 333.141 20.740,333.329 20.976,333.330 21.050 C 333.332 21.123,333.532 21.367,333.774 21.591 C 334.017 21.816,334.155 22.000,334.082 22.000 C 334.009 22.000,334.110 22.140,334.308 22.311 C 334.505 22.482,334.667 22.681,334.667 22.754 C 334.667 22.826,334.967 23.142,335.335 23.456 C 335.702 23.771,335.969 24.083,335.927 24.149 C 335.825 24.315,336.897 25.500,337.150 25.500 C 337.261 25.500,337.311 25.569,337.259 25.652 C 337.207 25.736,337.503 25.934,337.916 26.092 C 338.329 26.250,338.667 26.447,338.667 26.531 C 338.667 26.615,339.344 26.670,340.171 26.653 C 341.697 26.622,342.917 26.085,342.917 25.443 C 342.917 25.337,342.974 25.207,343.045 25.155 C 343.718 24.655,343.360 21.000,342.637 21.000 C 342.531 21.000,342.488 20.956,342.542 20.902 C 342.596 20.848,341.746 19.905,340.653 18.806 C 338.485 16.625,338.414 16.515,339.200 16.537 C 339.493 16.546,339.762 16.465,339.797 16.359 C 339.833 16.252,339.930 16.207,340.014 16.259 C 340.098 16.311,340.167 16.269,340.167 16.167 C 340.167 16.064,340.237 16.024,340.323 16.077 C 340.533 16.207,341.878 14.874,341.749 14.665 C 341.693 14.574,341.762 14.500,341.904 14.500 C 342.045 14.500,342.211 14.299,342.273 14.053 C 342.334 13.807,342.482 13.418,342.601 13.190 C 342.719 12.961,342.778 12.712,342.732 12.637 C 342.685 12.562,342.728 12.500,342.826 12.500 C 342.925 12.500,343.001 12.294,342.996 12.042 C 342.990 11.790,343.031 11.358,343.086 11.083 C 343.364 9.704,343.425 6.583,343.175 6.583 C 343.139 6.583,343.085 6.361,342.944 5.629 C 342.831 5.042,342.350 4.182,341.875 3.716 C 341.669 3.514,341.500 3.287,341.500 3.211 C 341.500 3.044,339.860 1.500,339.683 1.500 C 339.614 1.500,339.390 1.321,339.184 1.102 C 338.871 0.769,338.144 0.478,337.726 0.518 C 337.668 0.524,337.559 0.428,337.483 0.306 C 337.218 -0.123,321.817 -0.109,321.428 0.321 M357.630 0.092 C 357.584 0.138,357.283 0.210,356.960 0.251 C 356.638 0.292,356.159 0.408,355.895 0.508 C 355.632 0.608,355.379 0.692,355.333 0.695 C 355.287 0.697,355.100 0.783,354.917 0.886 C 354.733 0.988,354.546 1.078,354.500 1.086 C 354.070 1.158,353.667 1.397,353.667 1.579 C 353.667 1.720,353.544 1.770,353.333 1.715 C 353.147 1.666,353.000 1.710,353.000 1.814 C 353.000 1.916,352.891 2.000,352.758 2.000 C 352.625 2.000,352.443 2.131,352.353 2.292 C 352.264 2.452,352.147 2.565,352.095 2.542 C 351.846 2.433,351.667 2.524,351.667 2.760 C 351.667 2.903,351.603 2.981,351.526 2.933 C 351.448 2.885,351.092 3.118,350.734 3.451 C 350.376 3.784,350.184 3.998,350.306 3.926 C 350.429 3.855,350.115 4.223,349.609 4.746 C 349.063 5.309,348.725 5.792,348.779 5.931 C 348.828 6.061,348.786 6.167,348.684 6.167 C 348.583 6.167,348.500 6.284,348.500 6.427 C 348.500 6.569,348.425 6.640,348.333 6.583 C 348.193 6.497,348.084 6.746,348.206 6.875 C 348.228 6.898,348.071 7.199,347.858 7.544 C 347.645 7.889,347.432 8.414,347.385 8.710 C 347.339 9.007,347.218 9.400,347.117 9.583 C 347.016 9.767,346.913 10.029,346.888 10.167 C 346.864 10.304,346.772 10.792,346.684 11.250 C 346.299 13.269,346.697 16.590,347.519 18.206 C 347.600 18.365,347.667 18.603,347.667 18.734 C 347.667 18.865,347.737 18.997,347.824 19.028 C 347.910 19.058,348.017 19.290,348.063 19.543 C 348.108 19.795,348.262 20.120,348.406 20.263 C 348.549 20.406,348.667 20.598,348.667 20.688 C 348.667 20.986,350.239 22.872,350.375 22.736 C 350.413 22.698,350.534 22.836,350.645 23.043 C 350.756 23.250,351.125 23.605,351.465 23.833 C 351.805 24.061,352.121 24.293,352.167 24.350 C 352.373 24.605,353.362 25.002,353.531 24.898 C 353.642 24.829,353.672 24.857,353.604 24.966 C 353.542 25.067,353.643 25.231,353.829 25.331 C 354.015 25.430,354.167 25.462,354.167 25.402 C 354.167 25.342,354.276 25.383,354.409 25.494 C 354.543 25.605,354.730 25.647,354.826 25.588 C 354.922 25.529,355.000 25.589,355.000 25.721 C 355.000 25.861,355.227 26.005,355.542 26.063 C 356.249 26.196,356.376 26.234,356.625 26.390 C 356.740 26.461,356.903 26.477,356.988 26.424 C 357.074 26.371,357.186 26.396,357.237 26.479 C 357.310 26.597,360.277 26.615,362.612 26.510 C 362.812 26.501,363.299 26.377,363.696 26.234 C 364.092 26.091,364.594 25.939,364.810 25.897 C 365.027 25.855,365.314 25.710,365.449 25.575 C 365.583 25.440,365.762 25.373,365.847 25.425 C 365.931 25.477,366.000 25.440,366.000 25.343 C 366.000 25.246,366.056 25.176,366.125 25.186 C 366.423 25.233,366.640 25.146,367.000 24.833 C 367.211 24.650,367.485 24.500,367.609 24.500 C 367.732 24.500,367.833 24.387,367.833 24.250 C 367.833 24.113,367.945 24.000,368.082 24.000 C 368.219 24.000,368.545 23.775,368.808 23.500 C 369.071 23.225,369.372 23.000,369.476 23.000 C 369.581 23.000,369.667 22.928,369.667 22.841 C 369.667 22.753,369.835 22.504,370.042 22.286 C 370.954 21.323,372.000 19.691,372.000 19.233 C 372.000 19.105,372.073 19.000,372.161 19.000 C 372.250 19.000,372.275 18.875,372.216 18.723 C 372.154 18.561,372.178 18.487,372.273 18.546 C 372.406 18.628,372.815 17.602,372.922 16.917 C 372.936 16.825,373.036 16.536,373.143 16.273 C 373.488 15.432,373.242 9.764,372.849 9.504 C 372.726 9.422,372.451 8.616,372.421 8.250 C 372.393 7.906,371.646 6.533,371.333 6.250 C 371.154 6.088,371.048 5.890,371.097 5.811 C 371.146 5.732,371.094 5.667,370.982 5.667 C 370.870 5.667,370.823 5.621,370.879 5.566 C 371.012 5.433,370.757 5.118,369.764 4.186 C 369.313 3.763,368.696 3.173,368.392 2.875 C 368.088 2.577,367.777 2.333,367.701 2.333 C 367.625 2.333,367.394 2.176,367.188 1.984 C 366.981 1.791,366.723 1.617,366.614 1.596 C 366.506 1.574,366.154 1.438,365.833 1.292 C 364.543 0.707,364.028 0.502,363.729 0.456 C 363.557 0.429,363.323 0.349,363.208 0.277 C 363.094 0.206,362.930 0.190,362.845 0.243 C 362.760 0.296,362.652 0.277,362.605 0.202 C 362.515 0.056,357.771 -0.049,357.630 0.092 M378.319 0.222 C 377.693 0.426,377.167 0.852,377.167 1.155 C 377.167 1.253,377.101 1.333,377.021 1.333 C 376.705 1.333,376.661 2.799,376.658 13.526 C 376.655 25.624,376.654 25.607,377.575 26.026 C 377.809 26.133,378.000 26.292,378.000 26.380 C 378.000 26.467,378.150 26.500,378.334 26.452 C 378.517 26.404,378.625 26.432,378.574 26.516 C 378.518 26.605,382.505 26.667,388.390 26.667 L 398.300 26.667 399.131 25.853 L 399.962 25.039 399.964 23.561 C 399.967 21.719,399.005 19.835,398.288 20.278 C 398.201 20.332,398.066 20.273,397.988 20.146 C 397.872 19.959,396.671 19.909,391.465 19.873 C 387.955 19.849,384.714 19.811,384.262 19.789 L 383.441 19.750 383.446 10.958 C 383.449 5.766,383.389 2.167,383.299 2.167 C 383.215 2.167,383.186 2.104,383.233 2.028 C 383.396 1.764,382.488 0.669,381.851 0.361 C 381.100 -0.002,379.232 -0.076,378.319 0.222 M251.466 6.908 C 251.755 6.945,252.086 7.035,252.204 7.110 C 252.432 7.255,252.523 7.280,252.927 7.313 C 253.069 7.324,253.140 7.408,253.083 7.500 C 252.994 7.645,253.332 7.746,253.708 7.686 C 253.777 7.676,253.833 7.779,253.833 7.917 C 253.833 8.142,254.031 8.241,254.375 8.186 C 254.444 8.176,254.500 8.279,254.500 8.417 C 254.500 8.554,254.612 8.667,254.750 8.667 C 254.887 8.667,255.000 8.770,255.000 8.896 C 255.000 9.023,255.114 9.221,255.254 9.337 C 255.394 9.453,255.472 9.584,255.428 9.628 C 255.384 9.672,255.513 9.846,255.715 10.015 C 255.918 10.184,256.025 10.325,255.954 10.328 C 255.883 10.331,255.945 10.566,256.092 10.850 C 256.746 12.114,256.759 14.797,256.114 15.441 C 256.051 15.504,256.000 15.727,256.000 15.937 C 256.000 16.147,255.826 16.492,255.613 16.705 C 255.400 16.919,255.256 17.184,255.293 17.296 C 255.331 17.408,255.289 17.500,255.200 17.500 C 255.112 17.500,254.749 17.786,254.395 18.135 C 253.737 18.782,252.519 19.500,252.078 19.500 C 251.944 19.500,251.833 19.565,251.833 19.644 C 251.833 19.723,251.646 19.767,251.417 19.742 C 251.189 19.717,250.969 19.749,250.929 19.813 C 250.807 20.011,248.316 19.758,247.831 19.499 C 247.649 19.401,247.500 19.367,247.500 19.423 C 247.500 19.478,247.381 19.405,247.237 19.260 C 247.092 19.115,246.910 19.036,246.832 19.084 C 246.755 19.132,246.448 18.948,246.151 18.677 C 245.853 18.405,245.547 18.221,245.471 18.268 C 245.395 18.315,245.333 18.258,245.333 18.143 C 245.333 18.027,245.090 17.674,244.792 17.358 C 244.494 17.042,244.359 16.846,244.491 16.922 C 244.624 16.998,244.551 16.805,244.329 16.494 C 244.107 16.182,243.913 15.850,243.898 15.755 C 243.883 15.661,243.746 15.156,243.593 14.634 C 243.312 13.674,243.331 12.795,243.657 11.685 C 243.749 11.374,243.784 11.055,243.735 10.976 C 243.687 10.898,243.708 10.833,243.782 10.833 C 243.856 10.832,244.142 10.401,244.417 9.874 C 244.962 8.829,245.601 8.106,245.845 8.257 C 245.930 8.310,246.000 8.275,246.000 8.179 C 246.000 7.677,248.502 6.788,249.958 6.772 C 250.348 6.768,250.668 6.686,250.669 6.590 C 250.671 6.495,250.732 6.512,250.807 6.629 C 250.881 6.746,251.178 6.872,251.466 6.908 M14.835 6.888 C 15.065 6.920,15.421 7.035,15.627 7.145 C 15.832 7.255,16.000 7.300,16.000 7.244 C 16.000 7.188,16.119 7.261,16.263 7.406 C 16.408 7.551,16.596 7.627,16.680 7.575 C 16.764 7.523,16.833 7.544,16.833 7.621 C 16.833 7.698,17.047 7.888,17.308 8.042 C 17.927 8.408,18.833 9.338,18.833 9.608 C 18.833 9.725,18.991 9.968,19.184 10.147 C 19.377 10.327,19.486 10.555,19.425 10.654 C 19.364 10.753,19.398 10.833,19.500 10.833 C 19.602 10.833,19.640 10.908,19.583 11.000 C 19.527 11.092,19.543 11.167,19.620 11.167 C 19.697 11.167,19.775 11.550,19.792 12.019 C 19.809 12.487,19.904 12.968,20.003 13.087 C 20.128 13.237,20.129 13.337,20.008 13.412 C 19.912 13.471,19.833 13.845,19.833 14.242 C 19.833 14.915,19.575 15.669,19.001 16.667 C 18.870 16.896,18.759 17.129,18.756 17.186 C 18.746 17.354,17.195 18.833,17.028 18.833 C 16.944 18.833,16.778 18.949,16.660 19.091 C 16.543 19.233,16.346 19.310,16.223 19.263 C 16.100 19.216,16.000 19.250,16.000 19.339 C 16.000 19.427,15.854 19.500,15.677 19.500 C 15.499 19.500,15.313 19.565,15.264 19.644 C 15.215 19.724,14.985 19.752,14.753 19.708 C 14.521 19.664,14.238 19.700,14.124 19.788 C 13.878 19.977,12.740 19.911,11.773 19.650 C 11.394 19.548,11.072 19.491,11.059 19.524 C 11.046 19.557,10.896 19.461,10.726 19.311 C 10.556 19.162,10.244 18.987,10.032 18.922 C 9.652 18.806,7.836 17.167,8.087 17.167 C 8.159 17.167,8.056 17.027,7.859 16.855 C 7.661 16.684,7.500 16.399,7.500 16.222 C 7.500 16.045,7.411 15.811,7.302 15.702 C 7.070 15.470,6.982 15.139,6.939 14.333 C 6.921 14.012,6.849 13.658,6.779 13.545 C 6.709 13.432,6.732 13.189,6.831 13.003 C 6.962 12.760,6.959 12.569,6.823 12.313 C 6.690 12.065,6.688 11.993,6.817 12.073 C 6.931 12.144,7.000 12.030,7.000 11.770 C 7.000 11.541,7.076 11.306,7.169 11.248 C 7.263 11.191,7.295 11.073,7.242 10.987 C 7.189 10.901,7.263 10.713,7.406 10.570 C 7.549 10.427,7.667 10.214,7.667 10.097 C 7.667 9.981,7.815 9.751,7.996 9.587 C 8.177 9.423,8.290 9.232,8.248 9.163 C 8.205 9.093,8.338 8.924,8.543 8.787 C 8.749 8.650,9.142 8.341,9.417 8.101 C 9.692 7.861,10.048 7.623,10.208 7.571 C 10.369 7.520,10.500 7.403,10.500 7.312 C 10.500 7.221,10.578 7.195,10.674 7.255 C 10.770 7.314,10.948 7.279,11.070 7.178 C 11.488 6.831,13.360 6.687,14.835 6.888 M98.110 6.898 C 98.768 7.001,100.703 7.961,100.885 8.274 C 100.960 8.402,101.091 8.464,101.177 8.410 C 101.263 8.357,101.333 8.438,101.333 8.589 C 101.333 8.741,101.482 8.904,101.665 8.951 C 101.847 8.999,101.956 9.102,101.908 9.181 C 101.859 9.260,101.968 9.452,102.151 9.609 C 102.334 9.765,102.445 9.954,102.398 10.030 C 102.352 10.105,102.393 10.167,102.490 10.167 C 102.587 10.167,102.667 10.337,102.667 10.546 C 102.667 10.755,102.783 11.093,102.926 11.296 C 103.069 11.500,103.135 11.667,103.072 11.667 C 103.010 11.667,103.033 11.760,103.123 11.875 C 103.212 11.990,103.301 12.576,103.320 13.178 C 103.351 14.181,103.262 14.591,102.793 15.609 C 102.702 15.807,102.685 16.062,102.756 16.177 C 102.839 16.311,102.817 16.343,102.692 16.266 C 102.581 16.197,102.500 16.249,102.500 16.389 C 102.500 16.522,102.388 16.674,102.250 16.727 C 102.112 16.780,102.000 16.928,102.000 17.058 C 102.000 17.433,100.355 19.013,99.868 19.106 C 99.469 19.181,99.000 19.390,99.000 19.492 C 99.000 19.557,98.906 19.615,98.792 19.619 C 98.677 19.624,98.358 19.676,98.083 19.736 C 97.311 19.903,95.988 19.948,95.903 19.811 C 95.861 19.743,95.688 19.698,95.518 19.711 C 95.087 19.744,93.833 19.311,93.833 19.130 C 93.833 19.048,93.767 19.021,93.687 19.071 C 93.606 19.121,93.258 18.938,92.914 18.664 C 92.569 18.391,92.223 18.167,92.144 18.167 C 92.065 18.167,92.000 18.055,92.000 17.918 C 92.000 17.781,91.850 17.576,91.667 17.461 C 91.483 17.347,91.333 17.156,91.333 17.038 C 91.333 16.920,91.221 16.780,91.084 16.727 C 90.947 16.675,90.877 16.565,90.927 16.483 C 90.978 16.400,90.940 16.333,90.843 16.333 C 90.746 16.333,90.667 16.146,90.667 15.917 C 90.667 15.688,90.594 15.500,90.505 15.500 C 90.416 15.500,90.384 15.395,90.433 15.267 C 90.482 15.139,90.441 14.983,90.342 14.922 C 90.243 14.861,90.204 14.740,90.257 14.655 C 90.310 14.570,90.302 14.417,90.239 14.316 C 90.176 14.214,90.125 13.735,90.125 13.250 C 90.125 12.765,90.176 12.286,90.239 12.184 C 90.302 12.083,90.307 11.925,90.250 11.833 C 90.193 11.742,90.235 11.667,90.343 11.667 C 90.457 11.667,90.502 11.527,90.452 11.333 C 90.404 11.150,90.424 11.000,90.496 11.000 C 90.627 11.000,90.886 10.363,90.851 10.125 C 90.841 10.056,90.921 10.000,91.028 10.000 C 91.135 10.000,91.173 9.951,91.113 9.891 C 91.053 9.831,91.222 9.574,91.487 9.321 C 91.753 9.067,91.939 8.828,91.902 8.791 C 91.864 8.753,92.021 8.622,92.250 8.500 C 92.479 8.377,92.667 8.186,92.667 8.075 C 92.667 7.963,92.835 7.817,93.042 7.750 C 93.248 7.683,93.454 7.611,93.500 7.591 C 94.571 7.109,94.925 6.984,95.453 6.901 C 95.800 6.846,96.097 6.789,96.114 6.773 C 96.166 6.724,97.558 6.811,98.110 6.898 M361.500 6.886 C 362.138 7.013,362.789 7.293,362.912 7.492 C 362.973 7.591,363.092 7.630,363.176 7.578 C 363.344 7.474,363.627 7.677,364.284 8.370 C 364.520 8.620,364.778 8.784,364.857 8.736 C 364.936 8.687,365.000 8.759,365.000 8.895 C 365.000 9.031,365.094 9.243,365.208 9.366 C 365.323 9.488,365.566 9.887,365.748 10.253 C 365.931 10.618,366.145 10.963,366.223 11.020 C 366.302 11.077,366.367 11.396,366.367 11.729 C 366.367 12.062,366.423 12.369,366.491 12.411 C 366.742 12.566,366.452 15.239,366.144 15.611 C 366.042 15.733,366.025 15.834,366.105 15.836 C 366.185 15.837,366.169 15.894,366.071 15.961 C 365.972 16.028,365.715 16.402,365.499 16.792 C 365.282 17.181,365.032 17.500,364.942 17.500 C 364.851 17.500,364.824 17.546,364.881 17.603 C 364.938 17.660,364.894 17.791,364.784 17.895 C 364.331 18.320,363.344 19.000,363.178 19.000 C 363.080 19.000,363.000 19.057,363.000 19.126 C 363.000 19.550,359.636 20.112,359.176 19.765 C 358.986 19.621,358.965 19.635,359.076 19.833 C 359.189 20.037,359.174 20.044,358.991 19.875 C 358.868 19.760,358.641 19.667,358.487 19.667 C 357.844 19.667,355.932 18.625,355.427 18.000 C 355.242 17.771,354.889 17.377,354.642 17.125 C 354.395 16.873,354.243 16.666,354.304 16.664 C 354.366 16.663,354.337 16.606,354.240 16.539 C 353.515 16.038,353.211 11.833,353.844 11.070 C 353.952 10.940,353.983 10.833,353.911 10.833 C 353.840 10.833,353.900 10.702,354.046 10.542 C 354.301 10.260,354.333 10.181,354.333 9.842 C 354.333 9.591,356.317 7.668,356.632 7.613 C 356.789 7.585,357.168 7.406,357.474 7.215 C 357.856 6.977,358.324 6.864,358.954 6.856 C 359.462 6.850,359.900 6.822,359.928 6.794 C 359.997 6.726,360.983 6.783,361.500 6.886 " stroke="none" fill="#b4dce4" fill-rule="evenodd"></path><path id="path1" d="M98.833 0.167 C 99.156 0.375,99.333 0.375,99.333 0.167 C 99.333 0.075,99.165 0.001,98.958 0.003 C 98.655 0.005,98.631 0.036,98.833 0.167 M188.000 0.130 C 188.000 0.202,188.206 0.272,188.458 0.286 C 188.854 0.308,188.871 0.292,188.583 0.167 C 188.149 -0.020,188.000 -0.030,188.000 0.130 M381.417 0.167 C 381.473 0.258,381.638 0.333,381.782 0.333 C 381.926 0.333,382.297 0.601,382.605 0.929 C 382.914 1.256,383.167 1.457,383.167 1.376 C 383.167 1.295,382.960 1.037,382.708 0.802 C 382.058 0.195,381.162 -0.245,381.417 0.167 M88.449 2.589 C 87.836 3.128,88.055 3.123,88.697 2.583 C 88.969 2.354,89.130 2.169,89.054 2.172 C 88.979 2.175,88.706 2.362,88.449 2.589 M266.578 13.333 C 266.578 19.063,266.599 21.406,266.625 18.542 C 266.650 15.677,266.650 10.990,266.625 8.125 C 266.599 5.260,266.578 7.604,266.578 13.333 M113.167 13.333 C 113.167 19.971,113.223 23.318,113.333 23.250 C 113.441 23.183,113.500 19.696,113.500 13.333 C 113.500 6.971,113.441 3.483,113.333 3.417 C 113.223 3.348,113.167 6.696,113.167 13.333 M376.578 13.417 C 376.578 18.917,376.599 21.143,376.625 18.363 C 376.651 15.584,376.651 11.084,376.625 8.363 C 376.599 5.643,376.578 7.917,376.578 13.417 M61.292 6.790 C 61.956 6.822,63.044 6.822,63.708 6.790 C 64.373 6.759,63.829 6.733,62.500 6.733 C 61.171 6.733,60.627 6.759,61.292 6.790 M72.875 6.791 C 73.585 6.822,74.748 6.822,75.458 6.791 C 76.169 6.759,75.587 6.734,74.167 6.734 C 72.746 6.734,72.165 6.759,72.875 6.791 M299.030 6.789 C 300.771 6.827,301.497 6.901,301.546 7.046 C 301.584 7.158,301.607 7.138,301.597 7.000 C 301.582 6.790,301.179 6.749,299.081 6.743 L 296.583 6.736 299.030 6.789 M309.625 6.790 C 310.290 6.822,311.377 6.822,312.042 6.790 C 312.706 6.759,312.162 6.733,310.833 6.733 C 309.504 6.733,308.960 6.759,309.625 6.790 M326.744 15.083 C 326.744 19.667,326.765 21.518,326.792 19.197 C 326.818 16.876,326.818 13.126,326.792 10.863 C 326.765 8.601,326.744 10.500,326.744 15.083 M308.372 8.333 C 308.372 8.654,308.406 8.785,308.448 8.625 C 308.490 8.465,308.490 8.202,308.448 8.042 C 308.406 7.881,308.372 8.012,308.372 8.333 M64.883 9.000 C 64.883 9.504,64.915 9.710,64.953 9.458 C 64.991 9.206,64.991 8.794,64.953 8.542 C 64.915 8.290,64.883 8.496,64.883 9.000 M301.542 8.750 C 301.544 9.117,301.578 9.247,301.618 9.040 C 301.658 8.832,301.656 8.532,301.615 8.373 C 301.573 8.214,301.540 8.383,301.542 8.750 M245.120 8.669 C 244.802 9.040,244.743 9.242,244.999 9.084 C 245.162 8.983,245.561 8.333,245.460 8.333 C 245.431 8.333,245.278 8.484,245.120 8.669 M290.042 9.250 C 290.044 9.617,290.078 9.747,290.118 9.540 C 290.158 9.332,290.156 9.032,290.115 8.873 C 290.073 8.714,290.040 8.883,290.042 9.250 M26.187 9.670 C 26.439 10.417,26.581 10.562,26.428 9.917 C 26.363 9.642,26.238 9.343,26.150 9.254 C 26.063 9.164,26.079 9.352,26.187 9.670 M308.372 10.333 C 308.372 10.654,308.406 10.785,308.448 10.625 C 308.490 10.465,308.490 10.202,308.448 10.042 C 308.406 9.881,308.372 10.012,308.372 10.333 M64.875 10.917 C 64.877 11.283,64.911 11.414,64.951 11.206 C 64.991 10.999,64.990 10.699,64.948 10.540 C 64.906 10.380,64.874 10.550,64.875 10.917 M146.790 12.284 C 146.884 13.601,146.971 13.774,146.984 12.667 C 146.990 12.162,146.933 11.653,146.858 11.534 C 146.782 11.414,146.752 11.746,146.790 12.284 M301.539 12.500 C 301.539 12.821,301.573 12.952,301.615 12.792 C 301.657 12.631,301.657 12.369,301.615 12.208 C 301.573 12.048,301.539 12.179,301.539 12.500 M308.388 13.417 C 308.389 14.058,308.419 14.300,308.455 13.955 C 308.491 13.609,308.490 13.084,308.454 12.788 C 308.417 12.492,308.387 12.775,308.388 13.417 M383.372 13.833 C 383.372 14.154,383.406 14.285,383.448 14.125 C 383.490 13.965,383.490 13.702,383.448 13.542 C 383.406 13.381,383.372 13.512,383.372 13.833 M308.372 15.667 C 308.372 15.987,308.406 16.119,308.448 15.958 C 308.490 15.798,308.490 15.535,308.448 15.375 C 308.406 15.215,308.372 15.346,308.372 15.667 M64.881 16.917 C 64.882 17.375,64.915 17.543,64.953 17.289 C 64.991 17.036,64.990 16.661,64.951 16.456 C 64.911 16.251,64.880 16.458,64.881 16.917 M301.539 17.667 C 301.539 17.987,301.573 18.119,301.615 17.958 C 301.657 17.798,301.657 17.535,301.615 17.375 C 301.573 17.215,301.539 17.346,301.539 17.667 M290.039 18.333 C 290.039 18.654,290.073 18.785,290.115 18.625 C 290.157 18.465,290.157 18.202,290.115 18.042 C 290.073 17.881,290.039 18.012,290.039 18.333 M45.134 19.958 C 46.078 19.988,47.578 19.987,48.467 19.957 C 49.356 19.928,48.583 19.903,46.750 19.903 C 44.917 19.904,44.189 19.928,45.134 19.958 M225.042 19.958 C 226.027 19.987,227.640 19.987,228.625 19.958 C 229.610 19.928,228.804 19.904,226.833 19.904 C 224.862 19.904,224.056 19.928,225.042 19.958 M308.285 20.792 C 308.412 22.082,308.500 22.110,308.500 20.861 C 308.500 20.296,308.430 19.833,308.345 19.833 C 308.257 19.833,308.231 20.246,308.285 20.792 M64.875 21.417 C 64.877 21.783,64.911 21.914,64.951 21.706 C 64.991 21.499,64.990 21.199,64.948 21.040 C 64.906 20.880,64.874 21.050,64.875 21.417 M3.275 22.391 C 3.536 22.697,3.778 22.926,3.811 22.899 C 3.904 22.825,3.104 21.853,2.942 21.843 C 2.864 21.837,3.014 22.084,3.275 22.391 M212.468 22.597 C 212.652 22.950,213.167 23.453,213.167 23.279 C 213.167 23.227,212.969 22.974,212.727 22.717 C 212.412 22.382,212.338 22.348,212.468 22.597 M335.167 23.362 C 335.167 23.527,335.836 24.220,335.917 24.138 C 335.962 24.094,335.811 23.881,335.583 23.666 C 335.354 23.451,335.167 23.314,335.167 23.362 M154.399 26.528 C 154.352 26.604,154.468 26.667,154.657 26.667 C 154.846 26.667,155.000 26.604,155.000 26.528 C 155.000 26.451,154.884 26.389,154.743 26.389 C 154.601 26.389,154.447 26.451,154.399 26.528 " stroke="none" fill="#bcdce4" fill-rule="evenodd"></path></g></svg>